<svg xmlns="http://www.w3.org/2000/svg" viewBox="0 0 295.57 42.37"><defs><style>.cls-1{opacity:0.8;}.cls-2{fill:#fff;stroke:#f15a24;stroke-miterlimit:10;}</style></defs><g id="Layer_2" data-name="Layer 2"><g id="Layer_1-2" data-name="Layer 1"><g class="cls-1"><path class="cls-2" d="M.55,37.28,2.74,14.36,6,12.08l12,3.24,11.6-3.24,3.29,2.42L34,37.5H28.85L27.81,18l-7.53,2,.11,17.45H15.28L15.11,20,7.64,17.91,5.71,37.72Z"/><path class="cls-2" d="M39.52,38.76l2.69-21.82,5.17.61-2.7,21.82ZM40.89,7.6l5-1.37,1.65,6.15-5,1.38Z"/><path class="cls-2" d="M73.1,14.85l3.19,2.26,1.92,21.54-5.17.5L71.39,20.52,60,23.26,57.65,39.48l-5.16-.72L58.2.56l5.06.72L60.84,17.71Z"/><path class="cls-2" d="M110.91,37.94l-1-1.15-22.7,3.62-3-3.13,3.18-12.59,2.48-2h17.37l-1.16-8.57L86.34,19l-1.26-5,22.59-5.56,3.19,2.2,3.08,22.81,3.84,1.1-1.37,4.95Zm-2.42-6.21L108,27.94H92l-1.7,6.7Z"/><path class="cls-2" d="M121.08,36.24l2.53-24.19,3-2.25,17.64,2.86-.82,5.11-14.9-2.42-2,18.19,18.36-2.2.6,5.17L123.88,39Z"/><path class="cls-2" d="M149.88,38.76l2.69-21.82,5.17.61-2.69,21.82ZM151.25,7.6l5-1.37,1.65,6.15-5,1.38Z"/><path class="cls-2" d="M162.85,36.24l2.53-24.19,3-2.25L186,12.66l-.82,5.11-14.9-2.42-2,18.19,18.36-2.2.61,5.17L165.66,39Z"/><path class="cls-2" d="M190.55,39.42l2.37-6.54,6.59,2.26-2.36,6.59Z"/><path class="cls-2" d="M223.2,18.84l-11.71,1.9L209.08,37l-5.17-.8,2.75-18,2.14-2.2,16.49-2.61,3,2.42,1.05,21.74h-5.22Z"/><path class="cls-2" d="M236.94,36.51l-2.09-2.91L237.49,14l2.31-2.2,16.1-1.32,2.53,1.38,4.67,9.23-1.81,3.68L244.2,28.38l-1.1-5,13.79-3-2.3-4.57-12.32.94-2,15.11,18.91,3.52-1,5.06Z"/><path class="cls-2" d="M280.58,33.05l10.78,3.08L290,41.07l-12.91-3.62L275.2,34.7l1.37-14.4H265.74L265.3,15h11.77l.54-6.16,5.17.5-.44,4.51h12.37l.33,4.67-13.19,1Z"/></g></g></g></svg>