<?xml version="1.0" encoding="UTF-8"?>
<svg id="Layer_2" data-name="Layer 2" xmlns="http://www.w3.org/2000/svg" viewBox="0 0 171.08 24.19">
  <g id="Layer_1-2" data-name="Layer 1">
    <g opacity=".8">
      <path d="M.55,21.07L1.82,8.27l1.87-1.27,6.92,1.81,6.69-1.81,1.9,1.35,.67,12.85h-2.98l-.6-10.89-4.35,1.14,.06,9.75h-2.95l-.1-9.78-4.32-1.17-1.11,11.07-2.98-.25Z" fill="#fff" stroke="#f15a24" stroke-miterlimit="10"/>
      <path d="M23.04,21.9l1.55-12.19,2.98,.34-1.55,12.19-2.98-.34Zm.79-17.41l2.89-.77,.95,3.44-2.89,.77-.95-3.44Z" fill="#fff" stroke="#f15a24" stroke-miterlimit="10"/>
      <path d="M42.43,8.55l1.84,1.26,1.11,12.04-2.98,.28-.95-10.41-6.57,1.54-1.36,9.06-2.98-.4L33.83,.56l2.92,.4-1.4,9.18,7.08-1.6Z" fill="#fff" stroke="#f15a24" stroke-miterlimit="10"/>
      <path d="M64.26,21.44l-.57-.64-13.1,2.03-1.71-1.75,1.84-7.03,1.43-1.11h10.03l-.67-4.79-11.42,2.7-.73-2.79,13.04-3.1,1.84,1.23,1.78,12.74,2.22,.61-.79,2.76-3.17-.86Zm-1.4-3.47l-.29-2.12h-9.26l-.98,3.75,10.53-1.63Z" fill="#fff" stroke="#f15a24" stroke-miterlimit="10"/>
      <path d="M70.13,20.49l1.46-13.51,1.71-1.26,10.19,1.6-.48,2.86-8.6-1.35-1.14,10.16,10.6-1.23,.35,2.89-12.47,1.41-1.62-1.57Z" fill="#fff" stroke="#f15a24" stroke-miterlimit="10"/>
      <path d="M86.75,21.9l1.55-12.19,2.98,.34-1.55,12.19-2.98-.34Zm.79-17.41l2.89-.77,.95,3.44-2.89,.77-.95-3.44Z" fill="#fff" stroke="#f15a24" stroke-miterlimit="10"/>
      <path d="M94.24,20.49l1.46-13.51,1.71-1.26,10.19,1.6-.48,2.86-8.6-1.35-1.14,10.16,10.6-1.23,.35,2.89-12.47,1.41-1.62-1.57Z" fill="#fff" stroke="#f15a24" stroke-miterlimit="10"/>
      <path d="M110.23,22.27l1.36-3.65,3.81,1.26-1.36,3.68-3.81-1.29Z" fill="#fff" stroke="#f15a24" stroke-miterlimit="10"/>
      <path d="M129.08,10.77l-6.76,1.06-1.4,9.06-2.98-.45,1.59-10.09,1.24-1.23,9.52-1.46,1.75,1.35,.6,12.14h-3.01l-.54-10.39Z" fill="#fff" stroke="#f15a24" stroke-miterlimit="10"/>
      <path d="M137.01,20.64l-1.21-1.63,1.52-10.93,1.33-1.23,9.3-.74,1.46,.77,2.7,5.16-1.05,2.06-9.87,2-.63-2.79,7.96-1.66-1.33-2.55-7.11,.52-1.14,8.44,10.91,1.97-.57,2.83-12.28-2.21Z" fill="#fff" stroke="#f15a24" stroke-miterlimit="10"/>
      <path d="M162.2,18.71l6.22,1.72-.79,2.76-7.46-2.03-1.08-1.54,.79-8.05h-6.25l-.25-2.95h6.79l.32-3.44,2.98,.28-.25,2.52h7.14l.19,2.61-7.61,.55-.73,7.55Z" fill="#fff" stroke="#f15a24" stroke-miterlimit="10"/>
    </g>
  </g>
</svg>